<mxfile host="Electron" agent="Mozilla/5.0 (Windows NT 10.0; Win64; x64) AppleWebKit/537.36 (KHTML, like Gecko) draw.io/27.0.9 Chrome/134.0.6998.205 Electron/35.4.0 Safari/537.36" version="27.0.9">
  <diagram name="Page-1" id="g1APimLExxqfz-FXUPlU">
    <mxGraphModel dx="2316" dy="1680" grid="1" gridSize="10" guides="1" tooltips="1" connect="1" arrows="1" fold="1" page="1" pageScale="1" pageWidth="850" pageHeight="1100" math="0" shadow="0">
      <root>
        <mxCell id="0" />
        <mxCell id="1" parent="0" />
        <mxCell id="HWl5I3Q8F7Fo-ELIBK5y-14" style="edgeStyle=orthogonalEdgeStyle;rounded=0;orthogonalLoop=1;jettySize=auto;html=1;entryX=0;entryY=0.25;entryDx=0;entryDy=0;exitX=0.008;exitY=0.397;exitDx=0;exitDy=0;exitPerimeter=0;" parent="1" source="HWl5I3Q8F7Fo-ELIBK5y-5" target="HWl5I3Q8F7Fo-ELIBK5y-10" edge="1">
          <mxGeometry relative="1" as="geometry">
            <Array as="points">
              <mxPoint x="140" y="364" />
              <mxPoint x="140" y="200" />
            </Array>
          </mxGeometry>
        </mxCell>
        <mxCell id="HWl5I3Q8F7Fo-ELIBK5y-5" value="continue to fill and charge and transfer data" style="ellipse;whiteSpace=wrap;html=1;aspect=fixed;" parent="1" vertex="1">
          <mxGeometry x="170" y="320" width="110" height="110" as="geometry" />
        </mxCell>
        <mxCell id="HWl5I3Q8F7Fo-ELIBK5y-11" style="edgeStyle=orthogonalEdgeStyle;rounded=0;orthogonalLoop=1;jettySize=auto;html=1;" parent="1" source="HWl5I3Q8F7Fo-ELIBK5y-10" target="HWl5I3Q8F7Fo-ELIBK5y-5" edge="1">
          <mxGeometry relative="1" as="geometry" />
        </mxCell>
        <mxCell id="HWl5I3Q8F7Fo-ELIBK5y-18" value="not ready" style="edgeLabel;html=1;align=center;verticalAlign=middle;resizable=0;points=[];" parent="HWl5I3Q8F7Fo-ELIBK5y-11" vertex="1" connectable="0">
          <mxGeometry x="0.5588" y="-4" relative="1" as="geometry">
            <mxPoint as="offset" />
          </mxGeometry>
        </mxCell>
        <mxCell id="HWl5I3Q8F7Fo-ELIBK5y-12" style="edgeStyle=orthogonalEdgeStyle;rounded=0;orthogonalLoop=1;jettySize=auto;html=1;entryX=0.404;entryY=-0.003;entryDx=0;entryDy=0;fillColor=#f8cecc;strokeColor=#b85450;entryPerimeter=0;" parent="1" source="HWl5I3Q8F7Fo-ELIBK5y-10" target="HWl5I3Q8F7Fo-ELIBK5y-25" edge="1">
          <mxGeometry relative="1" as="geometry">
            <mxPoint x="400" y="415" as="targetPoint" />
            <Array as="points">
              <mxPoint x="380" y="220" />
              <mxPoint x="380" y="415" />
              <mxPoint x="417" y="415" />
            </Array>
          </mxGeometry>
        </mxCell>
        <mxCell id="HWl5I3Q8F7Fo-ELIBK5y-19" value="ready for scan mission" style="edgeLabel;html=1;align=center;verticalAlign=middle;resizable=0;points=[];" parent="HWl5I3Q8F7Fo-ELIBK5y-12" vertex="1" connectable="0">
          <mxGeometry x="0.6092" y="-1" relative="1" as="geometry">
            <mxPoint x="5" y="-136" as="offset" />
          </mxGeometry>
        </mxCell>
        <mxCell id="HWl5I3Q8F7Fo-ELIBK5y-22" style="edgeStyle=orthogonalEdgeStyle;rounded=0;orthogonalLoop=1;jettySize=auto;html=1;fillColor=#dae8fc;strokeColor=#6c8ebf;entryX=0.5;entryY=0;entryDx=0;entryDy=0;" parent="1" source="HWl5I3Q8F7Fo-ELIBK5y-10" target="HWl5I3Q8F7Fo-ELIBK5y-25" edge="1">
          <mxGeometry relative="1" as="geometry">
            <mxPoint x="510" y="420" as="targetPoint" />
            <Array as="points">
              <mxPoint x="450" y="220" />
              <mxPoint x="450" y="420" />
              <mxPoint x="425" y="420" />
            </Array>
          </mxGeometry>
        </mxCell>
        <mxCell id="HWl5I3Q8F7Fo-ELIBK5y-23" value="ready for spray mission" style="edgeLabel;html=1;align=center;verticalAlign=middle;resizable=0;points=[];" parent="HWl5I3Q8F7Fo-ELIBK5y-22" vertex="1" connectable="0">
          <mxGeometry x="0.2932" y="2" relative="1" as="geometry">
            <mxPoint x="8" as="offset" />
          </mxGeometry>
        </mxCell>
        <mxCell id="HWl5I3Q8F7Fo-ELIBK5y-10" value="check if ready to fly the given mission" style="whiteSpace=wrap;html=1;aspect=fixed;" parent="1" vertex="1">
          <mxGeometry x="280" y="180" width="80" height="80" as="geometry" />
        </mxCell>
        <mxCell id="HWl5I3Q8F7Fo-ELIBK5y-21" style="edgeStyle=orthogonalEdgeStyle;rounded=0;orthogonalLoop=1;jettySize=auto;html=1;entryX=0.5;entryY=0;entryDx=0;entryDy=0;" parent="1" source="HWl5I3Q8F7Fo-ELIBK5y-20" target="HWl5I3Q8F7Fo-ELIBK5y-10" edge="1">
          <mxGeometry relative="1" as="geometry" />
        </mxCell>
        <mxCell id="HWl5I3Q8F7Fo-ELIBK5y-20" value="do a mission from base station mission&amp;nbsp;" style="whiteSpace=wrap;html=1;aspect=fixed;" parent="1" vertex="1">
          <mxGeometry x="280" y="40" width="80" height="80" as="geometry" />
        </mxCell>
        <mxCell id="HWl5I3Q8F7Fo-ELIBK5y-30" style="edgeStyle=orthogonalEdgeStyle;rounded=0;orthogonalLoop=1;jettySize=auto;html=1;" parent="1" source="HWl5I3Q8F7Fo-ELIBK5y-25" target="HWl5I3Q8F7Fo-ELIBK5y-27" edge="1">
          <mxGeometry relative="1" as="geometry">
            <mxPoint x="425" y="530" as="targetPoint" />
          </mxGeometry>
        </mxCell>
        <mxCell id="HWl5I3Q8F7Fo-ELIBK5y-67" value="if batt high" style="edgeLabel;html=1;align=center;verticalAlign=middle;resizable=0;points=[];" parent="HWl5I3Q8F7Fo-ELIBK5y-30" vertex="1" connectable="0">
          <mxGeometry x="-0.3357" relative="1" as="geometry">
            <mxPoint as="offset" />
          </mxGeometry>
        </mxCell>
        <mxCell id="HWl5I3Q8F7Fo-ELIBK5y-25" value="Take off" style="ellipse;whiteSpace=wrap;html=1;aspect=fixed;" parent="1" vertex="1">
          <mxGeometry x="385" y="430" width="80" height="80" as="geometry" />
        </mxCell>
        <mxCell id="HWl5I3Q8F7Fo-ELIBK5y-32" value="" style="edgeStyle=orthogonalEdgeStyle;rounded=0;orthogonalLoop=1;jettySize=auto;html=1;" parent="1" source="HWl5I3Q8F7Fo-ELIBK5y-27" target="HWl5I3Q8F7Fo-ELIBK5y-31" edge="1">
          <mxGeometry relative="1" as="geometry" />
        </mxCell>
        <mxCell id="HWl5I3Q8F7Fo-ELIBK5y-47" style="edgeStyle=orthogonalEdgeStyle;rounded=0;orthogonalLoop=1;jettySize=auto;html=1;exitX=0;exitY=0;exitDx=0;exitDy=0;entryX=1;entryY=0.5;entryDx=0;entryDy=0;" parent="1" source="HWl5I3Q8F7Fo-ELIBK5y-27" target="HWl5I3Q8F7Fo-ELIBK5y-45" edge="1">
          <mxGeometry relative="1" as="geometry" />
        </mxCell>
        <mxCell id="HWl5I3Q8F7Fo-ELIBK5y-66" value="if batt to low" style="edgeLabel;html=1;align=center;verticalAlign=middle;resizable=0;points=[];" parent="HWl5I3Q8F7Fo-ELIBK5y-47" vertex="1" connectable="0">
          <mxGeometry x="0.0863" y="-2" relative="1" as="geometry">
            <mxPoint y="1" as="offset" />
          </mxGeometry>
        </mxCell>
        <mxCell id="HWl5I3Q8F7Fo-ELIBK5y-52" value="" style="edgeStyle=orthogonalEdgeStyle;rounded=0;orthogonalLoop=1;jettySize=auto;html=1;" parent="1" source="HWl5I3Q8F7Fo-ELIBK5y-27" target="HWl5I3Q8F7Fo-ELIBK5y-51" edge="1">
          <mxGeometry relative="1" as="geometry" />
        </mxCell>
        <mxCell id="HWl5I3Q8F7Fo-ELIBK5y-27" value="fly to clear take off point on a departure path" style="ellipse;whiteSpace=wrap;html=1;" parent="1" vertex="1">
          <mxGeometry x="368" y="550" width="114" height="110" as="geometry" />
        </mxCell>
        <mxCell id="HWl5I3Q8F7Fo-ELIBK5y-34" style="edgeStyle=orthogonalEdgeStyle;rounded=0;orthogonalLoop=1;jettySize=auto;html=1;entryX=0.5;entryY=0;entryDx=0;entryDy=0;fillColor=#f8cecc;strokeColor=#b85450;" parent="1" source="HWl5I3Q8F7Fo-ELIBK5y-31" target="HWl5I3Q8F7Fo-ELIBK5y-33" edge="1">
          <mxGeometry relative="1" as="geometry" />
        </mxCell>
        <mxCell id="HWl5I3Q8F7Fo-ELIBK5y-31" value="fly up high on a pre programed path to scan for the weeds this will only make a heat map&amp;nbsp;&amp;nbsp;" style="ellipse;whiteSpace=wrap;html=1;fillColor=#f8cecc;strokeColor=#b85450;" parent="1" vertex="1">
          <mxGeometry x="140" y="620" width="140" height="150" as="geometry" />
        </mxCell>
        <mxCell id="HWl5I3Q8F7Fo-ELIBK5y-35" style="edgeStyle=orthogonalEdgeStyle;rounded=0;orthogonalLoop=1;jettySize=auto;html=1;entryX=1;entryY=1;entryDx=0;entryDy=0;" parent="1" source="HWl5I3Q8F7Fo-ELIBK5y-33" target="HWl5I3Q8F7Fo-ELIBK5y-31" edge="1">
          <mxGeometry relative="1" as="geometry">
            <Array as="points">
              <mxPoint x="279" y="860" />
              <mxPoint x="279" y="748" />
            </Array>
          </mxGeometry>
        </mxCell>
        <mxCell id="HWl5I3Q8F7Fo-ELIBK5y-36" value="yes" style="edgeLabel;html=1;align=center;verticalAlign=middle;resizable=0;points=[];" parent="HWl5I3Q8F7Fo-ELIBK5y-35" vertex="1" connectable="0">
          <mxGeometry x="0.4226" y="1" relative="1" as="geometry">
            <mxPoint x="2" y="25" as="offset" />
          </mxGeometry>
        </mxCell>
        <mxCell id="HWl5I3Q8F7Fo-ELIBK5y-33" value="is there enough battery" style="whiteSpace=wrap;html=1;aspect=fixed;fillColor=#f8cecc;strokeColor=#b85450;" parent="1" vertex="1">
          <mxGeometry x="170" y="820" width="80" height="80" as="geometry" />
        </mxCell>
        <mxCell id="HWl5I3Q8F7Fo-ELIBK5y-40" style="edgeStyle=orthogonalEdgeStyle;rounded=0;orthogonalLoop=1;jettySize=auto;html=1;entryX=-0.003;entryY=0.292;entryDx=0;entryDy=0;entryPerimeter=0;" parent="1" source="HWl5I3Q8F7Fo-ELIBK5y-33" target="HWl5I3Q8F7Fo-ELIBK5y-27" edge="1">
          <mxGeometry relative="1" as="geometry">
            <Array as="points">
              <mxPoint x="120" y="860" />
              <mxPoint x="120" y="581" />
            </Array>
          </mxGeometry>
        </mxCell>
        <mxCell id="HWl5I3Q8F7Fo-ELIBK5y-41" value="no" style="edgeLabel;html=1;align=center;verticalAlign=middle;resizable=0;points=[];" parent="HWl5I3Q8F7Fo-ELIBK5y-40" vertex="1" connectable="0">
          <mxGeometry x="0.0024" y="1" relative="1" as="geometry">
            <mxPoint as="offset" />
          </mxGeometry>
        </mxCell>
        <mxCell id="HWl5I3Q8F7Fo-ELIBK5y-48" style="edgeStyle=orthogonalEdgeStyle;rounded=0;orthogonalLoop=1;jettySize=auto;html=1;entryX=0;entryY=0;entryDx=0;entryDy=0;" parent="1" source="HWl5I3Q8F7Fo-ELIBK5y-45" target="HWl5I3Q8F7Fo-ELIBK5y-10" edge="1">
          <mxGeometry relative="1" as="geometry">
            <Array as="points">
              <mxPoint x="90" y="500" />
              <mxPoint x="90" y="180" />
            </Array>
          </mxGeometry>
        </mxCell>
        <mxCell id="HWl5I3Q8F7Fo-ELIBK5y-45" value="land" style="ellipse;whiteSpace=wrap;html=1;" parent="1" vertex="1">
          <mxGeometry x="185" y="460" width="80" height="80" as="geometry" />
        </mxCell>
        <mxCell id="HWl5I3Q8F7Fo-ELIBK5y-56" value="" style="edgeStyle=orthogonalEdgeStyle;rounded=0;orthogonalLoop=1;jettySize=auto;html=1;" parent="1" source="HWl5I3Q8F7Fo-ELIBK5y-51" target="HWl5I3Q8F7Fo-ELIBK5y-55" edge="1">
          <mxGeometry relative="1" as="geometry" />
        </mxCell>
        <mxCell id="HWl5I3Q8F7Fo-ELIBK5y-51" value="fly to the closest hot spot " style="ellipse;whiteSpace=wrap;html=1;fillColor=#dae8fc;strokeColor=#6c8ebf;" parent="1" vertex="1">
          <mxGeometry x="579" y="565" width="80" height="80" as="geometry" />
        </mxCell>
        <mxCell id="HWl5I3Q8F7Fo-ELIBK5y-58" value="" style="edgeStyle=orthogonalEdgeStyle;rounded=0;orthogonalLoop=1;jettySize=auto;html=1;" parent="1" source="HWl5I3Q8F7Fo-ELIBK5y-55" target="HWl5I3Q8F7Fo-ELIBK5y-57" edge="1">
          <mxGeometry relative="1" as="geometry" />
        </mxCell>
        <mxCell id="HWl5I3Q8F7Fo-ELIBK5y-55" value="as approaches spray the first unsprayed weed " style="ellipse;whiteSpace=wrap;html=1;fillColor=#dae8fc;strokeColor=#6c8ebf;" parent="1" vertex="1">
          <mxGeometry x="579" y="690" width="80" height="80" as="geometry" />
        </mxCell>
        <mxCell id="HWl5I3Q8F7Fo-ELIBK5y-57" value="do a turn clockwise(max 180 dgr) until  there is no unsprayed weed then turn back to spray it   " style="ellipse;whiteSpace=wrap;html=1;fillColor=#dae8fc;strokeColor=#6c8ebf;" parent="1" vertex="1">
          <mxGeometry x="545.75" y="800" width="146.5" height="100" as="geometry" />
        </mxCell>
        <mxCell id="HWl5I3Q8F7Fo-ELIBK5y-61" value="" style="edgeStyle=orthogonalEdgeStyle;rounded=0;orthogonalLoop=1;jettySize=auto;html=1;entryX=1;entryY=0.5;entryDx=0;entryDy=0;" parent="1" source="HWl5I3Q8F7Fo-ELIBK5y-63" target="HWl5I3Q8F7Fo-ELIBK5y-57" edge="1">
          <mxGeometry relative="1" as="geometry">
            <mxPoint x="699" y="850" as="targetPoint" />
            <Array as="points">
              <mxPoint x="719" y="962" />
              <mxPoint x="719" y="850" />
            </Array>
          </mxGeometry>
        </mxCell>
        <mxCell id="HWl5I3Q8F7Fo-ELIBK5y-62" value="yes" style="edgeLabel;html=1;align=center;verticalAlign=middle;resizable=0;points=[];" parent="HWl5I3Q8F7Fo-ELIBK5y-61" vertex="1" connectable="0">
          <mxGeometry x="0.4226" y="1" relative="1" as="geometry">
            <mxPoint x="2" y="25" as="offset" />
          </mxGeometry>
        </mxCell>
        <mxCell id="HWl5I3Q8F7Fo-ELIBK5y-64" style="edgeStyle=orthogonalEdgeStyle;rounded=0;orthogonalLoop=1;jettySize=auto;html=1;entryX=0.5;entryY=1;entryDx=0;entryDy=0;" parent="1" source="HWl5I3Q8F7Fo-ELIBK5y-63" target="HWl5I3Q8F7Fo-ELIBK5y-27" edge="1">
          <mxGeometry relative="1" as="geometry">
            <mxPoint x="470" y="850" as="targetPoint" />
          </mxGeometry>
        </mxCell>
        <mxCell id="HWl5I3Q8F7Fo-ELIBK5y-65" value="no" style="edgeLabel;html=1;align=center;verticalAlign=middle;resizable=0;points=[];" parent="HWl5I3Q8F7Fo-ELIBK5y-64" vertex="1" connectable="0">
          <mxGeometry x="0.6324" y="5" relative="1" as="geometry">
            <mxPoint x="5" y="134" as="offset" />
          </mxGeometry>
        </mxCell>
        <mxCell id="HWl5I3Q8F7Fo-ELIBK5y-63" value="is there enough battery" style="whiteSpace=wrap;html=1;aspect=fixed;fillColor=#dae8fc;strokeColor=#6c8ebf;" parent="1" vertex="1">
          <mxGeometry x="579" y="930" width="80" height="80" as="geometry" />
        </mxCell>
      </root>
    </mxGraphModel>
  </diagram>
</mxfile>
